<svg xmlns="http://www.w3.org/2000/svg" width="256" height="256"><path fill="#212121" fill-opacity=".016" fill-rule="evenodd" d="M0 128.004v128.004l128.25-.254 128.25-.254.254-127.75L257.008 0H0zm.485.496c0 70.4.119 99.053.265 63.672.146-35.38.146-92.98 0-128C.604 29.153.485 58.1.485 128.5"/><path fill="#212121" fill-opacity=".259" fill-rule="evenodd" d="M102 36.077C90.893 41.094 86 50.07 86 65.43v9.354l-18.75.384c-17.618.361-19.085.54-24.296 2.959-7.315 3.397-11.912 7.563-15.508 14.054L24.5 97.5l-.285 49.618c-.279 48.479-.237 49.749 1.836 55.289 2.831 7.568 9.961 14.705 17.509 17.529 5.587 2.091 6.358 2.107 86.288 1.837l80.652-.273 5.319-2.946c6.476-3.588 10.64-8.174 14.08-15.508l2.601-5.546v-48c0-56.147.168-54.996-9.41-64.564-8.255-8.247-11.539-9.174-34.34-9.695L170 74.813l-.01-10.157c-.011-12.073-2.155-17.883-8.811-23.883-7.124-6.423-8.852-6.776-33.051-6.751-19.574.02-22.055.215-26.128 2.055m7.75 20.003c-1.46.851-1.75 2.501-1.75 9.97V75h41.205l-.352-8.581c-.48-11.682-.014-11.427-20.794-11.389-9.377.018-17.318.473-18.309 1.05M48.766 99.918l-3.266 2.918v92.119l2.773 2.772 2.772 2.773h154.119l2.918-3.266 2.918-3.266v-44.533c0-48.305-.05-48.77-5.472-51.24-1.959-.893-21.702-1.195-78.059-1.195H52.032zm70.163 13.386c-26.603 7.543-36.199 40.015-17.78 60.169a39.724 39.724 0 0 0 11.658 8.753c5.946 2.927 7.555 3.273 15.172 3.263 7.461-.009 9.349-.402 15.172-3.151 8.441-3.986 14.201-9.746 18.187-18.187 2.752-5.83 3.14-7.701 3.14-15.151s-.388-9.321-3.14-15.151c-3.946-8.358-9.748-14.21-17.843-17.998-7.488-3.504-17.521-4.544-24.566-2.547m.969 22.966c-12.357 8.255-6.736 27.738 8 27.726 15.305-.012 20.926-20.036 7.861-28.001-4.533-2.764-11.492-2.644-15.861.275"/><path fill="#212121" fill-opacity=".532" fill-rule="evenodd" d="M103.679 35.543c-6.08 2.23-11.333 7.051-14.307 13.128-2.329 4.762-2.799 7.194-3.181 16.458L85.743 76H67.55c-14.016 0-19.267.366-22.866 1.592-6.033 2.056-14.067 9.314-17.489 15.8L24.5 98.5v100l2.78 5.661c3.201 6.518 8.963 12.134 15.598 15.202 4.601 2.127 4.996 2.137 85.622 2.137h81l5.108-2.695c2.809-1.482 7.155-4.972 9.658-7.755 7.822-8.701 7.734-7.992 7.734-62.191 0-45.995-.078-47.993-2.086-53.36-2.784-7.441-9.972-14.629-17.413-17.413-4.913-1.838-7.77-2.086-24.039-2.086H170v-9.318c0-12.758-1.883-18.66-7.86-24.638-7.273-7.272-10.678-8.057-34.568-7.974-14.583.052-21.117.454-23.893 1.473m4.8 21.849c-1.165 1.777-1.492 4.409-1.273 10.25l.294 7.858 20.75.27 20.75.271v-8.866C149 54.631 149.645 55 127.694 55c-17.508 0-17.66.019-19.215 2.392M49.75 98.08c-4.61 2.685-4.75 4.185-4.75 50.823 0 31.986.326 44.719 1.195 46.625C48.758 201.153 46.471 201 128 201c80.557 0 79.283.077 81.97-4.945.663-1.239 1.03-18.174 1.03-47.566v-45.643l-2.923-2.923L205.154 97l-76.827.03c-50.321.02-77.431.382-78.577 1.05m72.37 15.124c-6.896 1.047-16.16 5.991-20.753 11.075-1.978 2.19-4.782 6.51-6.232 9.601-2.267 4.836-2.635 6.945-2.635 15.12 0 8.175.368 10.284 2.635 15.12 3.524 7.515 8.602 12.928 15.654 16.687 15.051 8.022 32.722 5.074 44.08-7.355 6.517-7.13 9.289-14.426 9.289-24.452 0-10.961-2.855-17.872-10.57-25.588-8.848-8.847-18.918-12.114-31.468-10.208m1.355 20.856c-1.664.485-4.589 2.494-6.5 4.466-3.283 3.387-3.475 3.965-3.475 10.474 0 6.505.193 7.088 3.465 10.464 6.363 6.565 15.658 6.759 21.958.459 8.298-8.297 4.547-22.754-6.714-25.882-4.242-1.178-4.622-1.177-8.734.019"/><path fill="#212121" fill-opacity=".977" fill-rule="evenodd" d="M108.5 34.644c-9.468 2.3-15.456 6.947-19.147 14.856-1.987 4.258-2.335 6.596-2.343 15.75L87 76H69.182c-12.875 0-19.211.413-22.837 1.49-10.288 3.055-18.08 11.41-20.897 22.405-1.303 5.088-1.496 13.121-1.245 51.813L24.5 197.5l2.59 5.5c3.753 7.968 7.178 11.514 14.7 15.218l6.667 3.282h79.022c73.581 0 79.377-.124 84.192-1.804 6.914-2.413 13.583-8.478 17.023-15.482l2.806-5.714V149c0-48.452-.045-49.598-2.137-54.122-3.068-6.635-8.684-12.397-15.202-15.598-5.52-2.711-6.154-2.788-25.411-3.105L169 75.85l-.022-11.175c-.025-12.671-1.342-16.885-7.066-22.609-6.735-6.735-10.077-7.546-31.912-7.737-10.725-.094-20.4.048-21.5.315m.071 21.927c-1.193 1.194-1.571 3.717-1.571 10.5V76h42v-9.3c0-5.9-.439-9.739-1.2-10.5-.846-.846-6.584-1.2-19.429-1.2-15.238 0-18.486.258-19.8 1.571M51.096 97.265c-1.322.679-3.347 2.505-4.5 4.057-2.036 2.741-2.105 4.004-2.405 44-.17 22.648-.019 43.164.335 45.591.429 2.93 1.599 5.365 3.483 7.25L50.846 201h154.122l3.266-2.917 3.266-2.918.28-44.618c.247-39.296.088-45.022-1.327-48.005-3.224-6.795-.049-6.544-82.604-6.527-57.018.011-74.909.302-76.753 1.25m66.228 17.116c-9.27 3.028-17.624 10.667-22.002 20.119-2.354 5.082-2.777 7.3-2.77 14.5.012 11.048 3.229 18.611 11.071 26.028 8.028 7.593 12.861 9.47 24.377 9.471 8.207.001 10.275-.362 15.196-2.669 7.255-3.401 13.667-9.812 17.385-17.384 2.603-5.303 2.919-6.973 2.919-15.446 0-8.473-.316-10.143-2.919-15.446-6.221-12.67-17.029-19.707-31.081-20.236-4.865-.183-9.637.234-12.176 1.063m3.176 20.831c-4.322 2.481-8.5 9.259-8.5 13.788 0 1.417 1.013 4.582 2.25 7.034 5.58 11.055 19.51 11.865 27.188 1.581 2.891-3.872 2.891-13.358 0-17.23-5.373-7.196-13.79-9.276-20.938-5.173"/></svg>